/* XPM */
static char *result[] = {
/* columns rows colors chars-per-pixel */
"64 64 164 2 ",
"   c white",
".  c #FEFEFE",
"X  c gray99",
"o  c #FBFBFB",
"O  c #FDFDFD",
"+  c #F1F0F0",
"@  c #C7C6C5",
"#  c #B4B3B1",
"$  c #DCDCDB",
"%  c #F9F9F8",
"&  c #D5D5D4",
"*  c #B5B4B2",
"=  c #C8C8C6",
"-  c gray94",
";  c #D1D1D0",
":  c #61605C",
">  c #42403B",
",  c #A7A6A4",
"<  c #F1F1F0",
"1  c #989794",
"2  c #42413C",
"3  c #767471",
"4  c #DCDCDA",
"5  c #CBCBCA",
"6  c #4E4D48",
"7  c #2D2B25",
"8  c #9D9C99",
"9  c #EFEFEF",
"0  c #8D8C88",
"q  c #2D2B26",
"w  c #666561",
"e  c #D8D8D6",
"r  c #CCCCCA",
"t  c #504E4A",
"y  c #2E2C27",
"u  c #9E9D9B",
"i  c #8E8C8A",
"p  c #2F2D28",
"a  c #686662",
"s  c #D9D8D7",
"d  c #33312C",
"f  c #585652",
"g  c #787774",
"h  c #777672",
"j  c #787673",
"k  c #72716D",
"l  c #52514D",
"z  c #32302A",
"x  c #35332E",
"c  c #312F2A",
"v  c #2C2A24",
"b  c #2C2A25",
"n  c #32302B",
"m  c #33302B",
"M  c #5A5854",
"N  c #7E7C79",
"B  c #7D7B78",
"V  c #7D7C78",
"C  c #55534F",
"Z  c #E4E4E3",
"A  c #E1E1E0",
"S  c #E2E2E1",
"D  c #D4D4D2",
"F  c #817F7C",
"G  c #A1A09D",
"H  c #91908D",
"J  c #2F2D27",
"K  c #302E29",
"L  c #CAC9C8",
"P  c #C8C7C6",
"I  c #C9C8C7",
"U  c #BBBAB9",
"Y  c #73716E",
"T  c #3E3C37",
"R  c #484641",
"E  c #484642",
"W  c #44423D",
"Q  c #373530",
"!  c #666560",
"~  c #D1D1CF",
"^  c #494743",
"/  c #4A4844",
"(  c #4A4944",
")  c #474641",
"_  c #777571",
"`  c #E9E9E9",
"'  c #B6B5B3",
"]  c #AAAAA8",
"[  c #ABAAA9",
"{  c #AAA9A7",
"}  c #BFBEBD",
"|  c #EEEEED",
" . c #F8F8F8",
".. c #F8F8F7",
"X. c #F7F7F6",
"o. c #F6F6F6",
"O. c gray97",
"+. c #F9F9F9",
"@. c gray95",
"#. c #BBBAB8",
"$. c #BAB9B8",
"%. c #B9B8B7",
"&. c #F3F2F2",
"*. c #DCDBDA",
"=. c #403F3A",
"-. c #413F3A",
";. c #3E3C38",
":. c #6D6C68",
">. c #DEDEDD",
",. c #DADAD9",
"<. c #393732",
"1. c #383631",
"2. c #36342F",
"3. c #686663",
"4. c #DDDDDC",
"5. c #D8D8D7",
"6. c #898784",
"7. c #3F3D38",
"8. c #B5B5B3",
"9. c #D7D7D6",
"0. c #9F9E9B",
"q. c #D5D4D3",
"w. c #A09F9D",
"e. c #413F3B",
"r. c #D6D6D4",
"t. c #C0C0BE",
"y. c #747370",
"u. c #787773",
"i. c #595753",
"p. c #3A3833",
"a. c #6A6865",
"s. c #777673",
"d. c #959491",
"f. c #9B9A98",
"g. c #27251F",
"h. c #2E2C26",
"j. c #5D5B57",
"k. c #FAFAF9",
"l. c #C0BFBD",
"z. c #7C7A77",
"x. c #7C7B78",
"c. c #585753",
"v. c #D3D2D1",
"b. c #F0F0EF",
"n. c #DFDFDE",
"m. c #E0E0DF",
"M. c #E1E0E0",
"N. c #D8D7D7",
"B. c #8B8987",
"V. c #9C9A98",
"C. c #2F2C27",
"Z. c gray96",
"A. c #9B9997",
"S. c #9A9996",
"D. c #615F5B",
"F. c #D2D2D1",
"G. c #A1A09E",
"H. c #3C3A36",
"J. c #6D6B67",
"K. c gray98",
"L. c #D6D6D5",
"P. c #ADACAA",
"I. c #C6C5C4",
"U. c #FCFCFB",
/* pixels */
"                                                                                                                                ",
"                                                                                                                                ",
"                                                                                                                                ",
"                                                                                                                                ",
"                                                                                                                                ",
"                                                                                                                                ",
"                                                                                                                                ",
"                                                                                                                                ",
"                                                                                                                                ",
"                                                                                                                                ",
"                                                                                                                                ",
"                                                                                                                                ",
"                                                                                                                                ",
"                                                                                                                                ",
"                                                                                                                                ",
"                                                                                                                                ",
"                                          . X o O                       . O o X .                                               ",
"                                          + @ # $                       % & * = -                                               ",
"                                          ; : > ,                       < 1 2 3 4                                               ",
"                                          5 6 7 8                       9 0 q w e                                               ",
"                                          r t y u                       9 i p a s                                               ",
"                                          r t d f g h h h h h h h h h j k l z a s                                               ",
"                                          r t x c v b b b b b b b b b b 7 n d a s                                               ",
"                                          r t m M N B B B B B B B B B V h C c a s                                               ",
"                                          r t p i Z A A A A A A A A A S D F p a s                                               ",
"                                          r t y G                       < H J a s                                               ",
"                                          r t K F L P P P P P P P P P I U Y K a s                                               ",
"                                          5 6 n T R E E E E E E E E E E W Q c ! e                                               ",
"                                          ~ : ^ / / / / / / / / / / / / / ( ) _ $                                               ",
"                                          ` ' ] [ [ [ [ [ [ [ [ [ [ [ [ [ [ { } |                                               ",
"                                    O  . ...X.o.o.o.o.o.o.o.o.o.o.o.o.o.o.o.o.O... .+.O                                         ",
"                                    @.#.$.$.$.$.$.$.$.$.$.$.$.$.$.$.$.$.$.$.$.$.$.%.I &.                                        ",
"                                    *.=.-.-.-.-.-.-.-.-.-.-.-.-.-.-.-.-.-.-.-.-.-.;.:.>.                                        ",
"                                    ,.<.<.<.<.<.<.<.<.<.<.1.2.2.<.<.<.<.<.<.<.<.<.Q 3.4.                                        ",
"                                    O.5.5.5.5.5.5.5.5.5.5.6.7.7.8.9.5.5.5.5.5.5.5.9.A  .                                        ",
"                                                          0.-.-.q.O                                                             ",
"                                                          w.e.-.r.O                                                             ",
"                                        o t.y.j j j j j u.i.p.p.a.s.j j j j 3 d.A                                               ",
"                                        ..f.g.b b b b b b J c c q b b b b y h.j.~                                               ",
"                                        k.l.g z.z.z.z.z.z.z.z.z.z.z.z.x.g c.n : v.                                              ",
"                                        O b.n.m.m.m.m.m.m.m.m.m.m.m.m.M.N.B.p : v.                                              ",
"                                                                        o.V.C.: v.                                              ",
"                                                                        Z.A.J : v.                                              ",
"                                                                        Z.A.J : v.                                              ",
"                                                                        Z.A.J : v.                                              ",
"                                                                        Z.S.h.D.F.                                              ",
"                                                                        o.G.H.J.r.                                              ",
"                                                                        K.L.P.I.@.                                              ",
"                                                                        . U.% K..                                               ",
"                                                                                                                                ",
"                                                                                                                                ",
"                                                                                                                                ",
"                                                                                                                                ",
"                                                                                                                                ",
"                                                                                                                                ",
"                                                                                                                                ",
"                                                                                                                                ",
"                                                                                                                                ",
"                                                                                                                                ",
"                                                                                                                                ",
"                                                                                                                                ",
"                                                                                                                                ",
"                                                                                                                                ",
"                                                                                                                                "
};
