/* XPM */
static char *result[] = {
/* columns rows colors chars-per-pixel */
"64 64 232 2 ",
"   c white",
".  c #DDDCDC",
"X  c #C0C0BE",
"o  c #BEBEBC",
"O  c #BFBEBC",
"+  c #BDBDBB",
"@  c #CCCBCA",
"#  c #EFEFEF",
"$  c #A3A19F",
"%  c #55534F",
"&  c #504F4A",
"*  c #504E4A",
"=  c #4E4D48",
"-  c #4B4A45",
";  c #706E6B",
":  c #CECDCC",
">  c #939290",
",  c #393732",
"<  c #33312C",
"1  c #403E39",
"2  c #52504B",
"3  c #514F4A",
"4  c #4E4C47",
"5  c #6F6D69",
"6  c #C8C7C5",
"7  c #949391",
"8  c #3B3934",
"9  c #6B6966",
"0  c #B7B5B3",
"q  c #B5B3B1",
"w  c #B3B2B0",
"e  c #C1C0BE",
"r  c #E6E6E6",
"t  c #3A3834",
"y  c #34322D",
"u  c #8E8D8B",
"i  c #8D8B89",
"p  c #8D8C8A",
"a  c #83827F",
"s  c #EBEAEA",
"d  c #EAEAE9",
"f  c #EAE9E9",
"g  c gray93",
"h  c #F8F8F8",
"j  c #949390",
"k  c #565550",
"l  c #8A8986",
"z  c #878683",
"x  c #888683",
"c  c #868481",
"v  c #9A9996",
"b  c #D5D4D3",
"n  c #989795",
"m  c #393733",
"M  c #3A3833",
"N  c #373530",
"B  c #36342F",
"V  c #383631",
"C  c #53514D",
"Z  c #AEADAB",
"A  c #BABAB8",
"S  c #787673",
"D  c #6C6B67",
"F  c #6D6C68",
"G  c #6E6C68",
"H  c #6A6865",
"J  c #4C4A47",
"K  c #5A5854",
"L  c #6B6A66",
"P  c #6C6A66",
"I  c #807F7C",
"U  c #C3C3C1",
"Y  c #FEFEFE",
"T  c #FDFDFD",
"R  c #F1F1F1",
"E  c #908E8C",
"W  c #3D3B36",
"Q  c #BCBBBA",
"!  c #F6F6F6",
"~  c #F3F3F3",
"^  c #918F8D",
"/  c #F4F4F3",
"(  c #EFEEEE",
")  c #EEEEEE",
"_  c #E3E3E2",
"`  c #8A8885",
"'  c #B2B1B0",
"]  c #E8E8E7",
"[  c #7E7D7A",
"{  c #44423E",
"}  c #3F3E39",
"|  c #3F3D38",
" . c #4C4A46",
".. c #9A9997",
"X. c gray98",
"o. c #676662",
"O. c #3C3A35",
"+. c #3B3935",
"@. c #474641",
"#. c #FAFAF9",
"$. c #A7A6A4",
"%. c #A8A7A5",
"&. c #ADACAA",
"*. c gray99",
"=. c #F9F8F8",
"-. c #F7F7F6",
";. c #F6F5F5",
":. c #F5F4F4",
">. c #F4F4F4",
",. c #F5F5F4",
"<. c #F6F6F5",
"1. c #F7F6F6",
"2. c gray97",
"3. c gray95",
"4. c #A4A4A2",
"5. c #92918F",
"6. c #84837F",
"7. c #757370",
"8. c #686663",
"9. c #7A7875",
"0. c #898885",
"q. c #989794",
"w. c #AAA9A7",
"e. c #D2D2D1",
"r. c #DBDBDA",
"t. c #908F8C",
"y. c #5C5A56",
"u. c #4B4945",
"i. c #413F3B",
"p. c #42403C",
"a. c #45433F",
"s. c #656360",
"d. c #9C9B99",
"f. c #DEDDDD",
"g. c #C1C0BF",
"h. c #6A6965",
"j. c #34312C",
"k. c #5E5C58",
"l. c #787774",
"z. c #8D8C89",
"x. c #8B8A86",
"c. c #81807D",
"v. c #757470",
"b. c #53514C",
"n. c #34322C",
"m. c #41403B",
"M. c #71706D",
"N. c #CBCBCA",
"B. c #D8D8D7",
"V. c #777572",
"C. c #32302A",
"Z. c #52514C",
"A. c #A5A4A2",
"S. c #E1E1E0",
"D. c #EAEAEA",
"F. c #EDEDEC",
"G. c #ECECEC",
"H. c #E7E7E6",
"J. c #DEDEDD",
"K. c #969592",
"L. c #32302B",
"P. c #7B7976",
"I. c #4E4C48",
"U. c #302E29",
"Y. c #62605C",
"T. c #C2C2C1",
"R. c #F3F2F2",
"E. c #AFAEAC",
"W. c #595753",
"Q. c #5A5955",
"!. c #C5C4C3",
"~. c #999896",
"^. c #F2F1F1",
"/. c #D6D6D5",
"(. c #706F6B",
"). c #302D28",
"_. c #55544F",
"`. c #B8B7B5",
"'. c #B0AFAD",
"]. c #312F2A",
"[. c #575551",
"{. c #B3B1B0",
"}. c #FAF9F9",
"|. c gray94",
" X c #9D9C9A",
".X c #605F5B",
"XX c #D1D1CF",
"oX c #E0E0DF",
"OX c #777673",
"+X c #312F2B",
"@X c #7C7B78",
"#X c #A9A9A6",
"$X c #CAC9C8",
"%X c #DEDDDC",
"&X c #E6E6E5",
"*X c gray92",
"=X c #E5E4E4",
"-X c #C4C4C3",
";X c #35332E",
":X c #848380",
">X c #FBFBFB",
",X c #CDCDCC",
"<X c #2E2C27",
"1X c #4C4A45",
"2X c #5D5C58",
"3X c #6F6E6A",
"4X c #676561",
"5X c #5B5955",
"6X c #484641",
"7X c #2D2B26",
"8X c #45433E",
"9X c #DBDAD9",
"0X c #DDDDDC",
"qX c #B1B0AE",
"wX c #5F5D59",
"eX c #2C2A25",
"rX c #2C2A24",
"tX c #2C2924",
"yX c #403F3A",
"uX c #666561",
"iX c #8C8B88",
"pX c #B6B5B4",
"aX c #E5E5E4",
"sX c #CCCCCA",
"dX c #B5B5B3",
"fX c #ABAAA8",
"gX c #949290",
"hX c #959491",
"jX c #9D9C99",
"kX c #B8B8B6",
"lX c #ECECEB",
"zX c #F9F9F9",
/* pixels */
"                                                                                                                                ",
"                                                                                                                                ",
"                                                                                                                                ",
"                                                                                                                                ",
"                                                                                                                                ",
"                                                                                                                                ",
"                                                                                                                                ",
"                                                                                                                                ",
"                                                                                                                                ",
"                                                                                                                                ",
"                                                                                                                                ",
"                                                                                                                                ",
"                                                                                                                                ",
"                                                                                                                                ",
"                                                                                                                                ",
"                                                                                                                                ",
"                                                                                                                                ",
"                                            . X o O O O O O O O O O O O O O O O O + @ #                                         ",
"                                            $ % & * = = = = = = = = = = = = = = = - ; :                                         ",
"                                            > , < 1 2 3 3 3 3 3 3 3 3 3 3 3 3 3 3 4 5 6                                         ",
"                                            7 8 < 9 0 q q q q q q q q q q q q q q w e r                                         ",
"                                            7 t y u                                                                             ",
"                                            7 t y i                                                                             ",
"                                            7 t y p                                                                             ",
"                                            7 8 y a s d d d d d d d d d d d d d d f g h                                         ",
"                                            j t < k l z z z z z x x z z z z z z z c v b                                         ",
"                                            n 1 m M m M M M , N B B V , M M M M M N C Z                                         ",
"                                            A S D F F F F G H J V N K L G F F F F P I U                                         ",
"                                            Y T T T T T T T R E W , Q ! T T T T T T T Y                                         ",
"                                                            ~ ^ W , + h                                                         ",
"                                      / ( ) ) ) ) ) ) ) ) ) _ ` W , ' ] ) ) ) ) ) ) ) ) ) # ! Y                                 ",
"                                      [ { } 1 1 1 1 1 1 1 1 1 8 N N W 1 1 1 1 1 1 1 1 1 |  ...X.                                ",
"                                      o.m O.O.O.O.O.O.O.O.O.O.O.O.O.O.O.O.O.O.O.O.O.O.O.+.@.j #.                                ",
"                                      Q $.%.%.%.%.%.%.%.%.%.%.%.%.%.%.%.%.%.%.%.%.%.%.%.%.&.: *.                                ",
"                                      =.-.-.-.-.-.-.! ;.:.>./ ~ ~ ~ ~ / >.,.<.1.-.-.-.-.-.2.X.Y                                 ",
"                                                Y T 3.: 4.5.6.7.8.P 9.0.q.w.e.,.Y Y                                             ",
"                                              Y r.t.y.u.{ i.| O.M t W 1 p.a.u.s.d.f.Y                                           ",
"                                            Y g.h.1 N j.O.k.l.a z.x.c.v.b.m n., m.M.N.                                          ",
"                                            B.V.V C.Z.A.e.S.] D.F.G.d H.J.: K.* L., P.d                                         ",
"                                            Z I.U.Y.T.R.                  Y ) E.W.U.Q.!.                                        ",
"                                            ~.| U.9.^.                        /.(.)._.`.                                        ",
"                                            '.& ].[.{.}.                    |. Xu.U..XXX                                        ",
"                                            oXOX+XM 2 @X#X$X%X&XF.*X=Xr.-X$ l. .;XM :X,.                                        ",
"                                            >X,XS 8 <X;X1X2X8.D ; 3XP 4X5X6X;X7X8Xl 9X                                          ",
"                                              *.0XqXl wXO.eXrXeXeXeXeXrXtXyXuXiXpXaX                                            ",
"                                                  Y d sXdXfXA.d.gXhXjXA.w.kXXXlXY                                               ",
"                                                              zXR./ #.                                                          ",
"                                                                                                                                ",
"                                                                                                                                ",
"                                                                                                                                ",
"                                                                                                                                ",
"                                                                                                                                ",
"                                                                                                                                ",
"                                                                                                                                ",
"                                                                                                                                ",
"                                                                                                                                ",
"                                                                                                                                ",
"                                                                                                                                ",
"                                                                                                                                ",
"                                                                                                                                ",
"                                                                                                                                ",
"                                                                                                                                ",
"                                                                                                                                ",
"                                                                                                                                "
};
