/* XPM */
static char *_a551dec1eb7411bd3b269dc14c7d1acLRXm8Cs5iODzOTbl[] = {
/* columns rows colors chars-per-pixel */
"64 64 37 1 ",
"  c gray1",
". c #070707",
"X c #090909",
"o c gray5",
"O c #151515",
"+ c #181818",
"@ c #1D1D1D",
"# c gray13",
"$ c #252525",
"% c #2F2F2F",
"& c #313131",
"* c gray23",
"= c gray34",
"- c #656565",
"; c #6D6D6D",
": c gray49",
"> c gray54",
", c #8E8E8E",
"< c gray60",
"1 c #9D9D9D",
"2 c #A7A7A7",
"3 c #B6B6B6",
"4 c #BBBBBB",
"5 c #BCBCBC",
"6 c gray76",
"7 c #C6C6C6",
"8 c #CECECE",
"9 c #D0D0D0",
"0 c #D7D7D7",
"q c #DADADA",
"w c #E1E1E1",
"e c gray89",
"r c #EAEAEA",
"t c #ECECEC",
"y c gray94",
"u c #FBFBFB",
"i c white",
/* pixels */
"iiiiiiiiiiiiiiiiiiiiiiiiiiiiiiiiiiiiiiiiiiiiiiiiiiiiiiiiiiiiiiii",
"iiiiiiiiiiiiiiiiiiiiiiiiiiiiiiiiiiiiiiiiiiiiiiiiiiiiiiiiiiiiiiii",
"iiiiiiiiiiiiiiiiiiiiiiiiiiiiiiiiiiiiiiiiiiiiiiiiiiiiiiiiiiiiiiii",
"iiiiiiiiiiiiiiiiiiiiiiiiiiiiiiiiiiiiiiiiiiiiiiiiiiiiiiiiiiiiiiii",
"iiiiiiiiiiiiiiiiiiiiiiiiiiiiiiiiiiiiiiiiiiiiiiiiiiiiiiiiiiiiiiii",
"iiiiiiiiiiiiiiiiiiiiiiiiiiiiiiiiiiiiiiiiiiiiiiiiiiiiiiiiiiiiiiii",
"iiiiiiiiiiiiiiiiiiiiiiiiiiiiiiiiiiiiiiiiiiiiiiiiiiiiiiiiiiiiiiii",
"iiiiiiiiiiiiiiiiiiiiiiiiiiiiiiiiiiiiiiiiiiiiiiiiiiiiiiiiiiiiiiii",
"iiiiiiiiiiiiiiiiiiiiiiiiiiiiiiiiiiiiiiiiiiiiiiiiiiiiiiiiiiiiiiii",
"iiiiiiiiiiiiiiiiiiiiiiiiiiiiiiiiiiiiiiiiiiiiiiiiiiiiiiiiiiiiiiii",
"iiiiiiiiiiiiiiiiiiiiiiiiiiiiiiiiiiiiiiiiiiiiiiiiiiiiiiiiiiiiiiii",
"iiiiiiiiiiiiiiiiiiiiiiiiiiiiiiiiiiiiiiiiiiiiiiiiiiiiiiiiiiiiiiii",
"iiiiiiiiiiiiiiiiiiiiiiiiiiiiiiiiiiiiiiiiiiiiiiiiiiiiiiiiiiiiiiii",
"iiiiiiiiiiiiiiiiiiiiiiiiiiiiiiiiiiiiiiiiiiiiiiiiiiiiiiiiiiiiiiii",
"iiiiiiiiiiiiiiiiiiit;;;;;;;;;;;;;;;;;;;;;=3iiiiiiiiiiiiiiiiiiiii",
"iiiiiiiiiiiiiiiiiiir                      1iuiiiiiiiiiiiiiiiiiii",
"iiiiiiiiiiiiiiiiiiit+O+O+#$#######$#####& 2iuiiiiiiiiiiiiiiiiiii",
"iiiiiiiiiiiiiiiiiiit   X           .      1iiiiiiiiiiiiiiiiiiiii",
"iiiiiiiiiiiiiiiiiiit  # 2rwwwwwwwwwwwwwwwqtiiiiiiiiiiiiiiiiiiiii",
"iiiiiiiiiiiiiiiiiiir  $ 6iiiiiiiiiiiiiiiiiiiiiiiiiiiiiiiiiiiiiii",
"iiiiiiiiiiiiiiiiiiit  # 4iiiiiuiiiiiiiiuiiiiiiiiiiiiiiiiiiiiiiii",
"iiiiiiiiiiiiiiiiiiit  # 5iuiiiiiiiiiiiiiiiiiiiiiiiiiiiiiiiiiiiii",
"iiiiiiiiiiiiiiiiiiit  $ 4iuiiiiiiiiiiiiiiiiiiiiiiiiiiiiiiiiiiiii",
"iiiiiiiiiiiiiiiiiiir  $ 4iiiiiiiiiiiiiiiiiiiiiiiiiiiiiiiiiiiiiii",
"iiiiiiiiiiiiiiiiiuit  # 4iiiiiiiiiiiiiiiiiiiiiiiiiiiiiiiiiiiiiii",
"iiiiiiiiiiiiiiiiiiit  $ 4iuuiiuiiuiiuiiuuiiiiiiiiiiiiiiiiiiiiiii",
"iiiiiiiiiiiiiiiiiiit  $ 6iiiiiiiiiiiiiiiiiiiiiiiiiiiiiiiiiiiiiii",
"iiiiiiiiiiiiiiiiiiit  @ <08898888889998898wiiiiiiiiiiiiiiiiiiiii",
"iiiiiiiiiiiiiiiiiiit   o                  <iiiiiiiiiiiiiiiiiiiii",
"iiiiiiiiiiiiiiiiiiit  . @%%%%%%%%%%%%%%%* 2iuiiiiiiiiiiiiiiiiiii",
"iiiiiiiiiiiiiiiiiiit   X                  <iiiiiiiiiiiiiiiiiiiii",
"iiiiiiiiiiiiiiiiiiir  o -,>>>>>>>>>>>>>>,:6iiiiiiiiiiiiiiiiiiiii",
"iiiiiiiiiiiiiiiiiiit  # 5iiiiiiiiiiiiiiiiiiiiiiiiiiiiiiiiiiiiiii",
"iiiiiiiiiiiiiiiiiiit  $ 5iuiiiuiiiiuiiiuiiiiiiiiiiiiiiiiiiiiiiii",
"iiiiiiiiiiiiiiiiiiit  $ 5iiiiiiiiiiiiiiiiiiiiiiiiiiiiiiiiiiiiiii",
"iiiiiiiiiiiiiiiiiiir  # 5iuiiiiiiiiiiiiiiiiiiiiiiiiiiiiiiiiiiiii",
"iiiiiiiiiiiiiiiiiuit  # 5iiiiiiiiiiiiiiiiiiiiiiiiiiiiiiiiiiiiiii",
"iiiiiiiiiiiiiiiiiiit  $ 5iiiiiiiiiiiiiiiiiiiiiiiiiiiiiiiiiiiiiii",
"iiiiiiiiiiiiiiiiiiit  # 4iuiiiiiiiiiiiiiiiiiiiiiiiiiiiiiiiiiiiii",
"iiiiiiiiiiiiiiiiiiit  $ 4iiiiiiiiiiiiiiiiiiiiiiiiiiiiiiiiiiiiiii",
"iiiiiiiiiiiiiiiiiiit  $ 5iiiiiiiiiiiiiiiiiiiiiiiiiiiiiiiiiiiiiii",
"iiiiiiiiiiiiiiiiiiit  # 5iiiiiiiiiiiiiiiiiiiiiiiiiiiiiiiiiiiiiii",
"iiiiiiiiiiiiiiiiiiit  $ 4iuiuiuiiuuiiuiiiuiiiiiiiiiiiiiiiiiiiiii",
"iiiiiiiiiiiiiiiiiiir  $ 6iiiiiiiiiiiiiiiiiiiiiiiiiiiiiiiiiiiiiii",
"iiiiiiiiiiiiiiiiiiit  + >75565655655665554qiiiiiiiiiiiiiiiiiiiii",
"iiiiiiiiiiiiiiiiiiit   o                  <iiiiiiiiiiiiiiiiiiiii",
"iiiiiiiiiiiiiiiiiiit@@#@$&&%&&%&%%&&&%&&* 2iiiiiiiiiiiiiiiiiiiii",
"iiiiiiiiiiiiiiiiiiir                      <iuiiiiiiiiiiiiiiiiiii",
"iiiiiiiiiiiiiiiiiiiy<<<<<<<<<<<<<<<<<<<<<,7iuiiiiiiiiiiiiiiiiiii",
"iiiiiiiiiiiiiiiiiiiiiiiiiiiiiiiiiiiiiiiiiiiiiiiiiiiiiiiiiiiiiiii",
"iiiiiiiiiiiiiiiiiiiiiuiuuiiuiuuiuiuiuiuiiiiiiiiiiiiiiiiiiiiiiiii",
"iiiiiiiiiiiiiiiiiiiiiiiiiiiiiiiiiiiiiiiiiiiiiiiiiiiiiiiiiiiiiiii",
"iiiiiiiiiiiiiiiiiiiiiiiiiiiiiiiiiiiiiiiiiiiiiiiiiiiiiiiiiiiiiiii",
"iiiiiiiiiiiiiiiiiiiiiiiiiiiiiiiiiiiiiiiiiiiiiiiiiiiiiiiiiiiiiiii",
"iiiiiiiiiiiiiiiiiiiiiiiiiiiiiiiiiiiiiiiiiiiiiiiiiiiiiiiiiiiiiiii",
"iiiiiiiiiiiiiiiiiiiiiiiiiiiiiiiiiiiiiiiiiiiiiiiiiiiiiiiiiiiiiiii",
"iiiiiiiiiiiiiiiiiiiiiiiiiiiiiiiiiiiiiiiiiiiiiiiiiiiiiiiiiiiiiiii",
"iiiiiiiiiiiiiiiiiiiiiiiiiiiiiiiiiiiiiiiiiiiiiiiiiiiiiiiiiiiiiiii",
"iiiiiiiiiiiiiiiiiiiiiiiiiiiiiiiiiiiiiiiiiiiiiiiiiiiiiiiiiiiiiiii",
"iiiiiiiiiiiiiiiiiiiiiiiiiiiiiiiiiiiiiiiiiiiiiiiiiiiiiiiiiiiiiiii",
"iiiiiiiiiiiiiiiiiiiiiiiiiiiiiiiiiiiiiiiiiiiiiiiiiiiiiiiiiiiiiiii",
"iiiiiiiiiiiiiiiiiiiiiiiiiiiiiiiiiiiiiiiiiiiiiiiiiiiiiiiiiiiiiiii",
"iiiiiiiiiiiiiiiiiiiiiiiiiiiiiiiiiiiiiiiiiiiiiiiiiiiiiiiiiiiiiiii",
"iiiiiiiiiiiiiiiiiiiiiiiiiiiiiiiiiiiiiiiiiiiiiiiiiiiiiiiiiiiiiiii"
};
