/* XPM */
static char *a1eb326dcc904ba1ffed2965488cb3700BxVvkXW89YZqpc3[] = {
/* columns rows colors chars-per-pixel */
"64 64 46 1 ",
"  c #010101",
". c #060606",
"X c #090909",
"o c #0C0C0C",
"O c #131313",
"+ c #151515",
"@ c #181818",
"# c #1D1D1D",
"$ c #232323",
"% c gray14",
"& c gray17",
"* c gray19",
"= c #353535",
"- c gray24",
"; c #414141",
": c #4B4B4B",
"> c gray31",
", c gray37",
"< c #646464",
"1 c #6F6F6F",
"2 c gray49",
"3 c gray53",
"4 c #8B8B8B",
"5 c #8D8D8D",
"6 c #959595",
"7 c gray60",
"8 c gray65",
"9 c #AFAFAF",
"0 c #B1B1B1",
"q c gray73",
"w c #BCBCBC",
"e c #C0C0C0",
"r c gray77",
"t c gray79",
"y c #CECECE",
"u c #D2D2D2",
"i c #DADADA",
"p c #DDDDDD",
"a c gray88",
"s c #E6E6E6",
"d c gray92",
"f c gray93",
"g c gray94",
"h c gray96",
"j c #FBFBFB",
"k c white",
/* pixels */
"kkkkkkkkkkkkkkkkkkkkkkkkkkkkkkkkkkkkkkkkkkkkkkkkkkkkkkkkkkkkkkkk",
"kkkkkkkkkkkkkkkkkkkkkkkkkkkkkkkkkkkkkkkkkkkkkkkkkkkkkkkkkkkkkkkk",
"kkkkkkkkkkkkkkkkkkkkkkkkkkkkkkkkkkkkkkkkkkkkkkkkkkkkkkkkkkkkkkkk",
"kkkkkkkkkkkkkkkkkkkkkkkkkkkkkkkkkkkkkkkkkkkkkkkkkkkkkkkkkkkkkkkk",
"kkkkkkkkkkkkkkkkkkkkkkkkkkkkkkkkkkkkkkkkkkkkkkkkkkkkkkkkkkkkkkkk",
"kkkkkkkkkkkkkkkkkkkkkkkkkkkkkkkkkkkkkkkkkkkkkkkkkkkkkkkkkkkkkkkk",
"kkkkkkkkkkkkkkkkkkkkkkkkkkkkkkkkkkkkkkkkkkkkkkkkkkkkkkkkkkkkkkkk",
"kkkkkkkkkkkkkkkkkkkkkkkkkkkkkkkkkkkkkkkkkkkkkkkkkkkkkkkkkkkkkkkk",
"kkkkkkkkkkkkkkkkkkkkkkkkkkkkkkkkkkkkkkkkkkkkkkkkkkkkkkkkkkkkkkkk",
"kkkkkkkkkkkkkkkkkkkkkkkkkkkkkkkkkkkkkkkkkkkkkkkkkkkkkkkkkkkkkkkk",
"kkkkkkkkkkkkkkkkkkkkjkjkjkkkkkkkkkkkkkkkkkkjjkkkkkkkkkkkkkkkkkkk",
"kkkkkkkkkkkkkkkkkkkkkkkkkkkkkkkkkkkkkkkkkkkkkkkkkkkkkkkkkkkkkkkk",
"kkkkkkkkkkkkkkkkkkhqqwqqqqhkkkkkkkkkkkkkhwqwqfkkkkkkkkkkkkkkkkkk",
"kkkkkkkkkkkkkkkkkkd       0kjkkkkkkkkkjkf    pkkkkkkkkkkkkkkkkkk",
"kkkkkkkkkkkkkkkkkkf%$%$&&@+fkkkkkkkkkkkkf*#* akkkkkkkkkkkkkkkkkk",
"kkkkkkkkkkkkkkkkkkf  .  X$ 8kjkkkkkkkkkkg$ # pkkkkkkkkkkkkkkkkkk",
"kkkkkkkkkkkkkkkkkkf   &< O. dkkkkkkkkkjkf# # pkkkkkkkkkkkkkkkkkk",
"kkkkkkkkkkkkkkkkkkf   .y; % 7kkkkkkkkkkkg$ # pkkkkkkkkkkkkkkkkkk",
"kkkkkkkkkkkkkkkkkkd  @ d0 %+ akkkkkkkkkkg$ # pkkkkkkkkkkkkkkkkkk",
"kkkkkkkkkkkkkkkkkkf  @ sj& % 5kkkkkkkkkkf# # akkkkkkkkkkkkkkkkkk",
"kkkkkkkkkkkkkkkkkkf  @ ak0 %@ ikjkkkkkkkg# # pkkkkkkkkkkkkkkkkkk",
"kkkkkkkkkkkkkkkkkkf  @ akh: % 3kkkkkkkkkg$ # akkkkkkkkkkkkkkkkkk",
"kkkkkkkkkkkkkkkkkkf  @ akke %# ukkkkkkkkf# # pkkkkkkkkkkkkkkkkkk",
"kkkkkkkkkkkkkkkkkkf. @ akkk, % 1kkkkkkkkg$ # pkkkkkkkkkkkkkkkkkk",
"kkkkkkkkkkkkkkkkkkd  @ akkkr $$ tkjkkkkkf$ # akkkkkkkkkkkkkkkkkk",
"kkkkkkkkkkkkkkkkkkf  @ akkkk1 $ ,kkkkkkkg# # akkkkkkkkkkkkkkkkkk",
"kkkkkkkkkkkkkkkkkkf  @ akkkku $% ekkkkkkf$ # akkkkkkkkkkkkkkkkkk",
"kkkkkkkkkkkkkkkkkkf  @ akkkkk2 $ :jkjkkkf$ # pkkkkkkkkkkkkkkkkkk",
"kkkkkkkkkkkkkkkkkkf  @ akkkjki #% qkkkjkf$ # pkkkkkkkkkkkkkkkkkk",
"kkkkkkkkkkkkkkkkkkf  @ skjkkkk4 $ *hkkkkg# # pkkkkkkkkkkkkkkkkkk",
"kkkkkkkkkkkkkkkkkkf  @ akkkkjka @% 9kkkkf$ # pkjkkkkkkkkkkkkkkkk",
"kkkkkkkkkkkkkkkkjkf  @ akkkkkkk6 % ofkjkf$ # akkkkkkkkkkkkkkkkkk",
"kkkkkkkkkkkkkkkkkkf. @ akkkkkkks o% 8kjkg$ # pkkkkkkkkkkkkkkkkkk",
"kkkkkkkkkkkkkkkkkkf  @ skjkkkkkk8 %X dkkf# # akkkkkkkkkkkkkkkkkk",
"kkkkkkkkkkkkkkkkkkf  @ akkkkkkkkf. % 7kkf$ # akkkkkkkkkkkkkkkkkk",
"kkkkkkkkkkkkkkkkkkf  @ akkkkkkkjk9 %+ akf$ # pkkkkkkkkkkkkkkkkkk",
"kkkkkkkkkkkkkkkkkkf  @ akkkkkkkkkh* % 4kf$ # akjkkkkkkkkkkkkkkkk",
"kkkkkkkkkkkkkkkkjkf  @ akjkkkkkkkkq %# pj  # pkkkkkkkkkkkkkkkkkk",
"kkkkkkkkkkkkkkkkkkf  @ akkkkkkkkkkj: % 3g@ # pkkkkkkkkkkkkkkkkkk",
"kkkkkkkkkkkkkkkkkkf  @ pkkkkkkkkkjke $O w> # akkkkkkkkkkkkkkkkkk",
"kkkkkkkkkkkkkkkkkkf  @ akkkkkkkkkkkk, @ ;* # akkkkkkkkkkkkkkkkkk",
"kkkkkkkkkkkkkkkkkkf  @ skkkkkkkkkkjkt %X  .@ akkkkkkkkkkkkkkkkkk",
"kkkkkkkkkkkkkkkkkkd  @ akjkkkkkkkkkkk1 +o. @ pkjkkkkkkkkkkkkkkkk",
"kkkkkkkkkkkkkkkkkkd  @ akkkkkkkkkkkkku $   @ pkkkkkkkkkkkkkkkkkk",
"kkkkkkkkkkkkkkkkkkfoX# akkkkkkkkkkkkkk2 $XX$ pkkkkkkkkkkkkkkkkkk",
"kkkkkkkkkkkkkkkkkkf    skkkkkkkkkkkkjki      akkkkkkkkkkkkkkkkkk",
"kkkkkkkkkkkkkkkkkkf==-.skjkkkkkkkkkkkkk6 -=- akkkkkkkkkkkkkkkkkk",
"kkkkkkkkkkkkkkkkkkkggggjkkkkkkkkkkkkkkkjggghgkkkkkkkkkkkkkkkkkkk",
"kkkkkkkkkkkkkkkkkkkkkkkkkkkkkkkkkkkkkkkkkkkkkkkkkkkkkkkkkkkkkkkk",
"kkkkkkkkkkkkkkkkkkkjkkkkkkkkkkkkkkkkkkkkkkjkkkkkkkkkkkkkkkkkkkkk",
"kkkkkkkkkkkkkkkkkkkkkkkkkkkkkkkkkkkkkkkkkkkkkkkkkkkkkkkkkkkkkkkk",
"kkkkkkkkkkkkkkkkkkkkkkkkkkkkkkkkkkkkkkkkkkkkkkkkkkkkkkkkkkkkkkkk",
"kkkkkkkkkkkkkkkkkkkkkkkkkkkkkkkkkkkkkkkkkkkkkkkkkkkkkkkkkkkkkkkk",
"kkkkkkkkkkkkkkkkkkkkkkkkkkkkkkkkkkkkkkkkkkkkkkkkkkkkkkkkkkkkkkkk",
"kkkkkkkkkkkkkkkkkkkkkkkkkkkkkkkkkkkkkkkkkkkkkkkkkkkkkkkkkkkkkkkk",
"kkkkkkkkkkkkkkkkkkkkkkkkkkkkkkkkkkkkkkkkkkkkkkkkkkkkkkkkkkkkkkkk",
"kkkkkkkkkkkkkkkkkkkkkkkkkkkkkkkkkkkkkkkkkkkkkkkkkkkkkkkkkkkkkkkk",
"kkkkkkkkkkkkkkkkkkkkkkkkkkkkkkkkkkkkkkkkkkkkkkkkkkkkkkkkkkkkkkkk",
"kkkkkkkkkkkkkkkkkkkkkkkkkkkkkkkkkkkkkkkkkkkkkkkkkkkkkkkkkkkkkkkk",
"kkkkkkkkkkkkkkkkkkkkkkkkkkkkkkkkkkkkkkkkkkkkkkkkkkkkkkkkkkkkkkkk",
"kkkkkkkkkkkkkkkkkkkkkkkkkkkkkkkkkkkkkkkkkkkkkkkkkkkkkkkkkkkkkkkk",
"kkkkkkkkkkkkkkkkkkkkkkkkkkkkkkkkkkkkkkkkkkkkkkkkkkkkkkkkkkkkkkkk",
"kkkkkkkkkkkkkkkkkkkkkkkkkkkkkkkkkkkkkkkkkkkkkkkkkkkkkkkkkkkkkkkk",
"kkkkkkkkkkkkkkkkkkkkkkkkkkkkkkkkkkkkkkkkkkkkkkkkkkkkkkkkkkkkkkkk"
};
