/* XPM */
static char *result[] = {
/* columns rows colors chars-per-pixel */
"64 64 168 2 ",
"   c white",
".  c #FEFEFE",
"X  c gray99",
"o  c #FCFCFB",
"O  c #B7B7B5",
"+  c #A1A19E",
"@  c #C5C4C2",
"#  c #F6F6F6",
"$  c #EAEAE9",
"%  c #EEEEEE",
"&  c #FDFDFD",
"*  c #63615E",
"=  c #32302B",
"-  c #797875",
";  c #D4D3D2",
":  c #999896",
">  c #B0B0AD",
",  c gray94",
"<  c #676562",
"1  c #36342F",
"2  c #787673",
"3  c #ABAAA9",
"4  c #3A3833",
"5  c #696764",
"6  c #E3E3E2",
"7  c #A7A6A4",
"8  c #2F2D28",
"9  c #615F5B",
"0  c #E2E1E1",
"q  c #302E29",
"w  c #62605C",
"e  c #E2E2E1",
"r  c #787774",
"t  c #35332E",
"y  c #676662",
"u  c #D3D3D2",
"i  c #D3D2D1",
"p  c #F0F0EF",
"a  c #34322D",
"s  c #413F3A",
"d  c #666460",
"f  c #65635F",
"g  c #CCCBCA",
"h  c #383631",
"j  c #3E3C37",
"k  c #3C3A36",
"l  c #BFBEBC",
"z  c #43423D",
"x  c #706E6B",
"c  c #6F6E6B",
"v  c #6A6864",
"b  c #DADAD9",
"n  c #DAD9D9",
"m  c #F4F4F3",
"M  c #62605D",
"N  c gray96",
"B  c #DCDCDB",
"V  c #5D5C58",
"C  c #EDECEC",
"Z  c #E6E6E5",
"A  c #E1E0E0",
"S  c #DCDCDA",
"D  c #D7D6D5",
"F  c #CFCECD",
"G  c #C2C1BF",
"H  c #B1B0AF",
"J  c #A09E9C",
"K  c #81807D",
"L  c #BDBDBB",
"P  c #312F2A",
"I  c #4D4C47",
"U  c #969593",
"Y  c #A1A09E",
"T  c #979593",
"R  c #8D8C89",
"E  c #83827E",
"W  c #797874",
"Q  c #6A6865",
"!  c #4F4D49",
"~  c #33312C",
"^  c #2C2924",
"/  c #969592",
"(  c #373530",
")  c #393732",
"_  c #3C3A35",
"`  c #403E39",
"'  c #42403B",
"]  c #45433E",
"[  c #44423E",
"{  c #9E9D9A",
"}  c gray98",
"|  c #A9A8A6",
" . c #43413C",
".. c #595753",
"X. c #6D6C68",
"o. c #878582",
"O. c #9E9D9B",
"+. c #B9B8B7",
"@. c #D9D8D7",
"#. c #F3F3F3",
"$. c #BBBAB9",
"%. c #BDBCBB",
"&. c #C1C1C0",
"*. c #C7C7C5",
"=. c #CDCDCC",
"-. c #D9D9D8",
";. c #DFDFDE",
":. c #ECECEC",
">. c #666561",
",. c #777673",
"<. c #F8F8F8",
"1. c #F9F8F8",
"2. c #706F6C",
"3. c #7E7D7A",
"4. c #BCBCBA",
"5. c #A2A29F",
"6. c #C2C1C0",
"7. c #DDDDDC",
"8. c #D5D5D4",
"9. c #D6D5D4",
"0. c #DAD9D8",
"q. c #DBDBDA",
"w. c #E7E7E6",
"e. c #EDEDEC",
"r. c #81807C",
"t. c #63625D",
"y. c #64635F",
"u. c #656460",
"i. c #989794",
"p. c gray91",
"a. c #5E5C58",
"s. c #3B3934",
"d. c #3A3934",
"f. c #7A7975",
"g. c #E8E8E7",
"h. c #5B5955",
"j. c #565450",
"k. c #797773",
"l. c #797774",
"z. c #44423D",
"x. c #8B8A87",
"c. c #DBDAD9",
"v. c #5D5B58",
"b. c #A09F9D",
"n. c #9F9E9B",
"m. c #3B3935",
"M. c #9F9E9C",
"N. c #5A5854",
"B. c #93928F",
"V. c #939390",
"C. c #4B4945",
"Z. c #45443F",
"A. c #46443F",
"S. c #767471",
"D. c gray93",
"F. c #757370",
"G. c #53514C",
"H. c #55534E",
"J. c #53514D",
"K. c #55524E",
"L. c #56534F",
"P. c #8C8B88",
"I. c #BAB8B7",
"U. c #A8A6A4",
"Y. c #A9A7A5",
"T. c #A9A8A5",
"R. c #C4C4C2",
"E. c #FEFEFD",
/* pixels */
"                                                                                                                                ",
"                                                                                                                                ",
"                                                                                                                                ",
"                                                                                                                                ",
"                                                                                                                                ",
"                                                                                                                                ",
"                                                                                                                                ",
"                                                                                                                                ",
"                                                                                                                                ",
"                                                                                                                                ",
"                                                                                                                                ",
"                                                                                                                                ",
"                                                                                                                                ",
"                                                                                                                                ",
"                                                                                                                                ",
"                                                                        . X o .                                                 ",
"                                                                        . O + @                                                 ",
"                                          # $ % o                       & * = -                                                 ",
"                                          ; : > ,                       & < 1 2                                                 ",
"                                          3 4 5 6                       & < 1 2                                                 ",
"                                          7 8 9 0                       & < 1 2                                                 ",
"                                          7 q w e                       & < 1 2                                                 ",
"                                          7 q w e                       & < 1 r                                                 ",
"                                          7 q w e                       & < t y u i i p .                                       ",
"                                          7 q w e                       & < a s d d f g .                                       ",
"                                          7 q w e                       & < t h j j k l .                                       ",
"                                          7 q w e                       & < a z x c x i                                         ",
"                                          7 q w e                       & < t v b n b m                                         ",
"                                          7 q M e               . N B $   < 1 r                                                 ",
"                                          7 q V ; C Z A S D F G H J K L   < 1 2                                                 ",
"                                          7 P I U Y T R E W Q ! ~ P ^ / & < 1 2                                                 ",
"                                          7 P ( ) ) ) ) ) _ j ` ' ] [ { } y 1 2                                                 ",
"                                          | t 4 4 4 4 4  ...X.o.O.+.@.#.& < 1 2                                                 ",
"                                          A +.$.%.&.*.=.; -.;.Z :.m X   & >.t ,.                                                ",
"                                        . X <.1.} X .                   . 2.j 3.                                                ",
"                                                                        . 4.5.6.                                                ",
"                                              } 7.8.9.9.9.9.9.9.9.9.9.9.9.0.q.w.                                                ",
"                                              e.r.t.y.y.y.y.y.y.y.y.y.y.y.y.u.i.                                                ",
"                                              p.a.h _ j j j j j j j j j j s.d.f.                                                ",
"                                              g.h.t j.k.l.l.l.l.l.l.l.l.k.z.1 ,.                                                ",
"                                              g.h.4 x.b c.c.c.c.c.c.c.c.0.v.1 2                                                 ",
"                                              g.h._ b..                 & < 1 2                                                 ",
"                                              g.h.s.n..                 & < 1 2                                                 ",
"                                              g.h.s.n..                 & < 1 2                                                 ",
"                                              g.h.m.M..                 & < 1 2                                                 ",
"                                              g.h.s.{ X & & & & & & & & X >.1 2                                                 ",
"                                              g.h.t N.B.V.V.V.V.V.V.V.V.B.C.1 2                                                 ",
"                                              g...q t Z.A.A.A.A.A.A.A.A.Z.( a S.                                                ",
"                                              D.F.G.H.J.J.J.J.J.J.J.J.J.J.K.L.P.                                                ",
"                                              <.I.U.Y.Y.Y.Y.Y.Y.Y.Y.Y.Y.Y.Y.T.R.                                                ",
"                                              . E.& & & & & & & & & & & & & & .                                                 ",
"                                                                                                                                ",
"                                                                                                                                ",
"                                                                                                                                ",
"                                                                                                                                ",
"                                                                                                                                ",
"                                                                                                                                ",
"                                                                                                                                ",
"                                                                                                                                ",
"                                                                                                                                ",
"                                                                                                                                ",
"                                                                                                                                ",
"                                                                                                                                ",
"                                                                                                                                "
};
