/* XPM */
static char *_f9135420a084e61b0057d667616f32fsjvzb0RdDRlg4xuH[] = {
/* columns rows colors chars-per-pixel */
"64 64 62 1 ",
"  c black",
". c gray2",
"X c gray4",
"o c gray5",
"O c #131313",
"+ c #161616",
"@ c #191919",
"# c #1E1E1E",
"$ c #202020",
"% c #272727",
"& c gray17",
"* c #2C2C2C",
"= c #323232",
"- c gray21",
"; c gray22",
": c #3F3F3F",
"> c gray26",
", c gray28",
"< c gray29",
"1 c gray31",
"2 c #535353",
"3 c #555555",
"4 c #5A5A5A",
"5 c gray37",
"6 c gray38",
"7 c #656565",
"8 c DimGray",
"9 c gray43",
"0 c #717171",
"q c #767676",
"w c #7B7B7B",
"e c gray49",
"r c #868686",
"t c #888888",
"y c gray56",
"u c #929292",
"i c #959595",
"p c gray60",
"a c #9B9B9B",
"s c gray64",
"d c #A5A5A5",
"f c #A9A9A9",
"g c #B2B2B2",
"h c #B6B6B6",
"j c #BBBBBB",
"k c #BCBCBC",
"l c gray76",
"z c #C6C6C6",
"x c #C8C8C8",
"c c #CECECE",
"v c #D2D2D2",
"b c #D5D5D5",
"n c #DADADA",
"m c gray87",
"M c gray89",
"N c #E4E4E4",
"B c #E9E9E9",
"V c #EFEFEF",
"C c gray95",
"Z c #F6F6F6",
"A c #FBFBFB",
"S c white",
/* pixels */
"SSSSSSSSSSSSSSSSSSSSSSSSSSSSSSSSSSSSSSSSSSSSSSSSSSSSSSSSSSSSSSSS",
"SSSSSSSSSSSSSSSSSSSSSSSSSSSSSSSSSSSSSSSSSSSSSSSSSSSSSSSSSSSSSSSS",
"SSSSSSSSSSSSSSSSSSSSSSSSSSSSSSSSSSSSSSSSSSSSSSSSSSSSSSSSSSSSSSSS",
"SSSSSSSSSSSSSSSSSSSSSSSSSSSSSSSSSSSSSSSSSSSSSSSSSSSSSSSSSSSSSSSS",
"SSSSSSSSSSSSSSSSSSSSSSSSSSSSSSSSSSSSSSSSSSSSSSSSSSSSSSSSSSSSSSSS",
"SSSSSSSSSSSSSSSSSSSSSSSSSSSSSSSSSSSSSSSSSSSSSSSSSSSSSSSSSSSSSSSS",
"SSSSSSSSSSSSSSSSSSSSSSSSSSSSSSSSSSSSSSSSSSSSSSSSSSSSSSSSSSSSSSSS",
"SSSSSSSSSSSSSSSSSSSSSSSSSSSSSSSSSSSSSSSSSSSSSSSSSSSSSSSSSSSSSSSS",
"SSSSSSSSSSSSSSSSSSSSSSSSSSSSSSSSSSSSSSSSSSSSSSSSSSSSSSSSSSSSSSSS",
"SSSSSSSSSSSSSSSSSSSSSSSSSSSSSSSSSSSSSSSSSSSSSSSSSSSSSSSSSSSSSSSS",
"SSSSSSSSSSSSSSSSSSSSSSSSSSASSSSSSSSSSSSSSSSSSSSSSSSSSSSSSSSSSSSS",
"SSSSSSSSSSSSSSSSSSSSSSSSASSSSZVVBVCZSSSSSAASSSSSSSSSSSSSSSSSSSSS",
"SSSSSSSSSSSSSSSSSSSSSSSSSAvsq<# ..*20ikmZSSSSSSSSSSSSSSSSSSSSSSS",
"SSSSSSSSSSSSSSSSSSSSSASSj2    X++O      ,ucASSSSSSSSSSSSSSSSSSSS",
"SSSSSSSSSSSSSSSSSSSSSSN6  %=&      +*=&@   3CSSSSSSSSSSSSSSSSSSS",
"SSSSSSSSSSSSSSSSSSSSSb  &%   =6997>    #%$$ VSSSSSSSSSSSSSSSSSSS",
"SSSSSSSSSSSSSSSSSSSSN  ## XsnCASSSZNcs4  @++VSSSSSSSSSSSSSSSSSSS",
"SSSSSSSSSSSSSSSSSSSS9 $# wVSSSSSSSSSSSAnu  &BSSSSSSSSSSSSSSSSSSS",
"SSSSSSSSSSSSSSSSSSSv %+ 0SSSSSSSSSSSSSSSSMw VSASSSSSSSSSSSSSSSSS",
"SSSSSSSSSSSSSSSSSSSp $@ mSASSSSSSSSSSSSSSSSjVSSSSSSSSSSSSSSSSSSS",
"SSSSSSSSSSSSSSSSSSS0 $ 5ASSSSSSSSSSSSSSSSSSSSSSSSSSSSSSSSSSSSSSS",
"SSSSSSSSSSSSSSSSSSA4 $ 0SSSSSSSSSSSSSSSSSSSASSSSSSSSSSSSSSSSSSSS",
"SSSSSSSSSSSSSSSSSSA5 # 1ZSSSSSSSSSSSSSSSSSSSSSSSSSSSSSSSSSSSSSSS",
"SSSSSSSSSSSSSSSSSSSw @@ mSASSSSSSSSSSSSSSSSSSSSSSSSSSSSSSSSSSSSS",
"SSSSSSSSSSSSSSSSSASd %@ qSSSSSSSSSSSSSSSSSSSSSSSSSSSSSSSSSSSSSSS",
"SSSSSSSSSSSSSSSSSSSm $ # 9nSSSSSSSSSSSSSSSSSSSSSSSSSSSSSSSSSSSSS",
"SSSSSSSSSSSSSSSSSSSSt & #  0gbBSSSSSSSASSSSSSSSSSSSSSSSSSSSSSSSS",
"SSSSSSSSSSSSSSSSSSSSC: * @@    4rfzMZSSSSSSSSSSSSSSSSSSSSSSSSSSS",
"SSSSSSSSSSSSSSSSSSSSSB4  &@#$$      ,rkBSSSSSSSSSSSSSSSSSSSSSSSS",
"SSSSSSSSSSSSSSSSSSSSSSAf$   #%$$$%$+    yNSSASSSSSSSSSSSSSSSSSSS",
"SSSSSSSSSSSSSSSSSSSSSASSVjw$     O$%##%X  hSSSSSSSSSSSSSSSSSSSSS",
"SSSSSSSSSSSSSSSSSSSSSSSSSSSVnjpq,    +# $# sSSSSSSSSSSSSSSSSSSSS",
"SSSSSSSSSSSSSSSSSSSSSSSSSASSSSSSZNcf9  @..* cSASSSSSSSSSSSSSSSSS",
"SSSSSSSSSSSSSSSSSSSSSSSSSSSSASASSSSSSNp ..@ 8SSSSSSSSSSSSSSSSSSS",
"SSSSSSSSSSSSSSSSSSSSSSSSSSSSSSSSSSSASSSl @ + NSSSSSSSSSSSSSSSSSS",
"SSSSSSSSSSSSSSSSSSSSSSSSSSSSSSSSSSSSSSSSt #% cSSSSSSSSSSSSSSSSSS",
"SSSSSSSSSSSSSSSSSSSSSSSSSSSSSSSSSSSSSSASz $$ kSASSSSSSSSSSSSSSSS",
"SSSSSSSSSSSSSSSSSSSSSSSSSSSSSSSSSSSSSSSSv $% kSSSSSSSSSSSSSSSSSS",
"SSSSSSSSSSSSSSSSSSASSASSSSSSSSSSSSSSSSASv $$ cSASSSSSSSSSSSSSSSS",
"SSSSSSSSSSSSSSSSSSBpSSASSSSSSSSSSSSSSSASf %O NSSSSSSSSSSSSSSSSSS",
"SSSSSSSSSSSSSSSSSSB 8mSSSASSSSSSSSSSSSSV% # 0SSSSSSSSSSSSSSSSSSS",
"SSSSSSSSSSSSSSSSSSN   uMSSSSASSSSSASSSV7 +& cSSSSSSSSSSSSSSSSSSS",
"SSSSSSSSSSSSSSSSSSN #@  ezVSSSSSSSSSZk= @& rSASSSSSSSSSSSSSSSSSS",
"SSSSSSSSSSSSSSSSSSN &+#+   9pkcvvzht;  $& 4ZSSSSSSSSSSSSSSSSSSSS",
"SSSSSSSSSSSSSSSSSSB   #$%%           *&  eCSSSSSSSSSSSSSSSSSSSSS",
"SSSSSSSSSSSSSSSSSSSNf4    #*======-*o  -kSSSSSSSSSSSSSSSSSSSSSSS",
"SSSSSSSSSSSSSSSSSSSSSAnf9%           0kZSSSSSSSSSSSSSSSSSSSSSSSS",
"SSSSSSSSSSSSSSSSSSSSSSSSSCmxhfdpdfjvVSSSSSSSSSSSSSSSSSSSSSSSSSSS",
"SSSSSSSSSSSSSSSSSSSSSSSASSSSSSSSSSSSSSASSSSSSSSSSSSSSSSSSSSSSSSS",
"SSSSSSSSSSSSSSSSSSSSSSSSSSSASAASASASSSSSSSSSSSSSSSSSSSSSSSSSSSSS",
"SSSSSSSSSSSSSSSSSSSSSSSSSSSSSSSSSSSSSSSSSSSSSSSSSSSSSSSSSSSSSSSS",
"SSSSSSSSSSSSSSSSSSSSSSSSSSSSSSSSSSSSSSSSSSSSSSSSSSSSSSSSSSSSSSSS",
"SSSSSSSSSSSSSSSSSSSSSSSSSSSSSSSSSSSSSSSSSSSSSSSSSSSSSSSSSSSSSSSS",
"SSSSSSSSSSSSSSSSSSSSSSSSSSSSSSSSSSSSSSSSSSSSSSSSSSSSSSSSSSSSSSSS",
"SSSSSSSSSSSSSSSSSSSSSSSSSSSSSSSSSSSSSSSSSSSSSSSSSSSSSSSSSSSSSSSS",
"SSSSSSSSSSSSSSSSSSSSSSSSSSSSSSSSSSSSSSSSSSSSSSSSSSSSSSSSSSSSSSSS",
"SSSSSSSSSSSSSSSSSSSSSSSSSSSSSSSSSSSSSSSSSSSSSSSSSSSSSSSSSSSSSSSS",
"SSSSSSSSSSSSSSSSSSSSSSSSSSSSSSSSSSSSSSSSSSSSSSSSSSSSSSSSSSSSSSSS",
"SSSSSSSSSSSSSSSSSSSSSSSSSSSSSSSSSSSSSSSSSSSSSSSSSSSSSSSSSSSSSSSS",
"SSSSSSSSSSSSSSSSSSSSSSSSSSSSSSSSSSSSSSSSSSSSSSSSSSSSSSSSSSSSSSSS",
"SSSSSSSSSSSSSSSSSSSSSSSSSSSSSSSSSSSSSSSSSSSSSSSSSSSSSSSSSSSSSSSS",
"SSSSSSSSSSSSSSSSSSSSSSSSSSSSSSSSSSSSSSSSSSSSSSSSSSSSSSSSSSSSSSSS",
"SSSSSSSSSSSSSSSSSSSSSSSSSSSSSSSSSSSSSSSSSSSSSSSSSSSSSSSSSSSSSSSS",
"SSSSSSSSSSSSSSSSSSSSSSSSSSSSSSSSSSSSSSSSSSSSSSSSSSSSSSSSSSSSSSSS"
};
