/* XPM */
static char *result[] = {
/* columns rows colors chars-per-pixel */
"64 64 143 2 ",
"   c white",
".  c #FEFEFE",
"X  c gray94",
"o  c #D2D2D0",
"O  c #CECECC",
"+  c #F3F3F2",
"@  c #C7C6C5",
"#  c #4F4D49",
"$  c #3E3C38",
"%  c #C3C2C1",
"&  c #FDFDFD",
"*  c #F8F8F8",
"=  c #E0E0DF",
"-  c #DBDBDA",
";  c #F0F0EF",
":  c #3E3C37",
">  c #BEBEBC",
",  c #6F6E6B",
"<  c #5F5E59",
"1  c #BBBAB9",
"2  c #BFBEBC",
"3  c #D3D2D1",
"4  c #3A3833",
"5  c #2E2B26",
"6  c #A5A4A2",
"7  c #D3D3D2",
"8  c #3C3A36",
"9  c #302E29",
"0  c #A6A5A3",
"q  c #CCCBCA",
"w  c #383631",
"e  c #312F29",
"r  c #9D9C99",
"t  c #C7C7C5",
"y  c gray99",
"u  c #B8B7B5",
"i  c #35332E",
"p  c #32302A",
"a  c #8C8A88",
"s  c #F4F4F4",
"d  c #F4F3F3",
"f  c #F3F2F2",
"g  c #F5F4F4",
"h  c #BEBDBB",
"j  c #4D4B47",
"k  c gray97",
"l  c #A19F9D",
"z  c #36342F",
"x  c #33312B",
"c  c #797875",
"v  c #E9E9E8",
"b  c #F3F3F3",
"n  c #6C6A66",
"m  c #605E5B",
"M  c #605F5B",
"N  c #615F5B",
"B  c #55534E",
"V  c #3B3935",
"C  c #403E39",
"Z  c #F0EFEF",
"A  c #7C7B78",
"S  c #34322D",
"D  c #5A5854",
"F  c #D5D5D3",
"G  c #45433E",
"H  c #D5D4D4",
"J  c #43413C",
"K  c #373530",
"L  c #A8A7A5",
"P  c #FBFBFA",
"I  c gray98",
"U  c #BCBBBA",
"Y  c #B6B5B3",
"T  c #B7B7B4",
"R  c #91908D",
"E  c #46443F",
"W  c #3F3D38",
"Q  c #969592",
"!  c #4B4A45",
"~  c #696864",
"^  c #E3E3E2",
"/  c #C4C3C1",
"(  c #4E4C48",
")  c #DFDFDF",
"_  c #787773",
"`  c #AFAFAD",
"'  c #474541",
"]  c #AFAEAC",
"[  c #FAFAF9",
"{  c gray95",
"}  c #82807D",
"|  c #393732",
" . c #494743",
".. c #B9B8B6",
"X. c #EEEEEE",
"o. c #7B7A76",
"O. c #CDCCCB",
"+. c #777572",
"@. c #C0BFBD",
"#. c #52504C",
"$. c #666461",
"%. c #DFDEDE",
"&. c #C0C0BE",
"*. c #4F4D48",
"=. c #585752",
"-. c #A4A3A1",
";. c #44423D",
":. c #383632",
">. c #74726F",
",. c #D6D6D5",
"<. c #FCFCFB",
"1. c #B4B3B1",
"2. c #504E49",
"3. c #32302B",
"4. c #504F4A",
"5. c #B2B2B0",
"6. c gray96",
"7. c #8B8A88",
"8. c #5D5B57",
"9. c #C4C4C2",
"0. c #BABAB8",
"q. c #494742",
"w. c #312F2A",
"e. c #514F4B",
"r. c #B1B0AE",
"t. c #EAEAE9",
"y. c #848280",
"u. c #8B8A87",
"i. c #BEBDBC",
"p. c #4B4945",
"a. c #B2B1B0",
"s. c #EFEFEE",
"d. c #959491",
"f. c #DDDDDC",
"g. c #F9F9F9",
"h. c #B3B2B1",
"j. c #F6F6F6",
"k. c #E1E1E0",
"l. c gray93",
"z. c #C1C0BE",
"x. c #BAB9B7",
"c. c #E7E7E6",
"v. c #FBFBFB",
/* pixels */
"                                                                                                                                ",
"                                                                                                                                ",
"                                                                                                                                ",
"                                                                                                                                ",
"                                                                                                                                ",
"                                                                                                                                ",
"                                                                                                                                ",
"                                                                                                                                ",
"                                                                                                                                ",
"                                                                                                                                ",
"                                                                                                                                ",
"                                                                                                                                ",
"                                                                                                                                ",
"                                                                                                                                ",
"                                                                                                                                ",
"                                                                                                                                ",
"                                                                                                                                ",
"                                                                          . . . .                                               ",
"                                                                          X o O + .                                             ",
"                                                                          @ # $ % &                                             ",
"                                                  * = - ;                 @ # : > &                                             ",
"                                                  = , < 1                 @ # : 2 &                                             ",
"                                                  3 4 5 6                 @ # : 2 &                                             ",
"                                                  7 8 9 0                 @ # : 2 &                                             ",
"                                                  7 8 9 0                 @ # : 2 &                                             ",
"                                                  7 8 9 0                 @ # : 2 &                                             ",
"                                                  q w e r                 t # : 2 &                                             ",
"                                                y u i p a s   . d f f f g h j $ 2 &                                             ",
"                                                k l z x c v   b n m M M N B V C 2 &                                             ",
"                                                Z A z S D F   X G z z z z z z C 2 &                                             ",
"                                              . H J K K K L P I U Y Y Y T R E W 2 &                                             ",
"                                              * Q w J ! S ~ ^   I I I I y / ( : 2 &                                             ",
"                                            . ) # S _ ` ' K ] [           @ # : 2 &                                             ",
"                                            { } |  ...X.o.S j O.&         @ # : 2 &                                             ",
"                                          I L J K +.+   @.#.K $.%..       @ # : 2 &                                             ",
"                                        * &.*.S =.3     & -.;.:.>.,.<.    @ # : 2 &                                             ",
"                                      d 1.2.3.4.5.y       6.7.V z 8.9..   @ # : 2 &                                             ",
"                                      0.q.w.e.r.I           t.y.W K u..   @ # : 2 &                                             ",
"                                    . i.p.( a.*             . s.d.A f.    @ # : 2 &                                             ",
"                                      g.h.u j.                  k k.      @ # : 2 &                                             ",
"                                        & .                               @ # : 2 &                                             ",
"                                                                          @ # : 2 &                                             ",
"                                                                          @ # : 2 &                                             ",
"                                                                          @ # : 2 &                                             ",
"                                                                          @ # : > &                                             ",
"                                                                          l.z.x.c..                                             ",
"                                                                          . v.I & .                                             ",
"                                                                                                                                ",
"                                                                                                                                ",
"                                                                                                                                ",
"                                                                                                                                ",
"                                                                                                                                ",
"                                                                                                                                ",
"                                                                                                                                ",
"                                                                                                                                ",
"                                                                                                                                ",
"                                                                                                                                ",
"                                                                                                                                ",
"                                                                                                                                ",
"                                                                                                                                ",
"                                                                                                                                ",
"                                                                                                                                ",
"                                                                                                                                ",
"                                                                                                                                "
};
