/* XPM */
static char *_513a9b0ebab402da4bbb44ec7e4c0cf8UzArTO17VDf2VrD[] = {
/* columns rows colors chars-per-pixel */
"64 64 61 1 ",
"  c black",
". c #070707",
"X c gray3",
"o c gray5",
"O c #101010",
"+ c gray9",
"@ c #191919",
"# c #1D1D1D",
"$ c #232323",
"% c #272727",
"& c gray16",
"* c #2F2F2F",
"= c gray19",
"- c #343434",
"; c #393939",
": c #3C3C3C",
"> c gray25",
", c #4E4E4E",
"< c gray32",
"1 c #555555",
"2 c #5A5A5A",
"3 c gray36",
"4 c gray39",
"5 c #656565",
"6 c #6C6C6C",
"7 c #727272",
"8 c #767676",
"9 c #797979",
"0 c #7C7C7C",
"q c #808080",
"w c #868686",
"e c gray54",
"r c #8B8B8B",
"t c gray57",
"y c #959595",
"u c #9B9B9B",
"i c #9D9D9D",
"p c #A4A4A4",
"a c #A7A7A7",
"s c #AAAAAA",
"d c #AEAEAE",
"f c #B2B2B2",
"g c gray71",
"h c #BBBBBB",
"j c gray",
"k c #C0C0C0",
"l c gray78",
"z c gray79",
"x c #CECECE",
"c c #D2D2D2",
"v c gray84",
"b c gray85",
"n c gainsboro",
"m c gray88",
"M c gray90",
"N c #E9E9E9",
"B c #EFEFEF",
"V c #F1F1F1",
"C c #F6F6F6",
"Z c #FBFBFB",
"A c white",
/* pixels */
"AAAAAAAAAAAAAAAAAAAAAAAAAAAAAAAAAAAAAAAAAAAAAAAAAAAAAAAAAAAAAAAA",
"AAAAAAAAAAAAAAAAAAAAAAAAAAAAAAAAAAAAAAAAAAAAAAAAAAAAAAAAAAAAAAAA",
"AAAAAAAAAAAAAAAAAAAAAAAAAAAAAAAAAAAAAAAAAAAAAAAAAAAAAAAAAAAAAAAA",
"AAAAAAAAAAAAAAAAAAAAAAAAAAAAAAAAAAAAAAAAAAAAAAAAAAAAAAAAAAAAAAAA",
"AAAAAAAAAAAAAAAAAAAAAAAAAAAAAAAAAAAAAAAAAAAAAAAAAAAAAAAAAAAAAAAA",
"AAAAAAAAAAAAAAAAAAAAAAAAAAAAAAAAAAAAAAAAAAAAAAAAAAAAAAAAAAAAAAAA",
"AAAAAAAAAAAAAAAAAAAAAAAAAAAAAAAAAAAAAAAAAAAAAAAAAAAAAAAAAAAAAAAA",
"AAAAAAAAAAAAAAAAAAAAAAAAAAAAAAAAAAAAAAAAAAAAAAAAAAAAAAAAAAAAAAAA",
"AAAAAAAAAAAAAAAAAAAAAAAAAAAAAAAAAAAAAAAAAAAAAAAAAAAAAAAAAAAAAAAA",
"AAAAAAAAAAAAAAAAAAAAAAAAAAAAAAAAAAAAAAAAAAAAAAAAAAAAAAAAAAAAAAAA",
"AAAAAAAAAAAAAAAAAAAAAAAAAAAAAAAAAAAAAAAAAAAAAAAAAAAAAAAAAAAAAAAA",
"AAAAAAAAAAAAAAAAAAAAAAAAAAAAAAAAAAAAAAAAAAAAAAAAAAAAAAAAAAAAAAAA",
"AAAAAAAAAAAAAAAAAAAAAAAAAAAAAAAAAAAAAAAAAAAAAAAAAAAAAAAAAAAAAAAA",
"AAAAAAAAAAAAAAAAAAAAAAAAAAAAAAAAAAAAAAAAAAAAAAAAAAAAAAAAAAAAAAAA",
"AAAAAAAAAAAAAAAAAAAAAAAAAAAAAAAAAAAAAAAAAAAAAAAAAAAAAAAAAAAAAAAA",
"AAAAAAAAAAAAAAAAAAAAAAAAAAAAAAAAAAAAAAAAAAAAAAAAAAZAAAAAAAAAAAAA",
"AAAAAAAAAAAAAAAAAAAAAAAAAAAAAAAAAAAAAAAAAAAAAAAAAAAAAAAAAAAAAAAA",
"AAAAAAAAAAAAM7q0qCAAAAAAAAAAAVq0q6vAAAAAAAAAAAAd6w6bAAAAAAAAAAAA",
"AAAAAAAAAAAAC&   bAAAAAAAAAAAv    aAZAAAAAAAAAZ>   NAZAAAAAAAAAA",
"AAAAAAAAAAAAAt ; fAAAAAAAAAZAf =% 7AAAAAAAAAAAm * 6AAAAAAAAAAAAA",
"AAAAAAAAAAAZAk * 0AAAAAAAAAAAq #X +BAAAAAAAAAAj = aAZAAAAAAAAAAA",
"AAAAAAAAAAAAAM @ =VAZAAAAAAAC; . % cAAAAAAAAAAt = cAAAAAAAAAAAAA",
"AAAAAAAAAAAAAZ3 % vAAAAAAAAAb @### aAZAAAAAAAZ1 X@VAAAAAAAAAAAAA",
"AAAAAAAAAAAAAAu = dAZAAAAAZAg  wr  7AAAAAAAAAm $ 8AAAAAAAAAAAAAA",
"AAAAAAAAAAAAZAz * 9AAAAAAAAAq  jl ##VAAAAAAZAk - dAZAAAAAAAAAAAA",
"AAAAAAAAAAAAAAN o &VAAAAAAAV;X mN = cAAAAAAAAt * vAZAAAAAAAAAAAA",
"AAAAAAAAAAAAAAA6 & vAZAAAZAb o*CZ:  aAAAAAAAZ1  =VAAAAAAAAAAAAAA",
"AAAAAAAAAAAAAAAa = dAZAAAAAg  9AAr  7AAAAAZAm % 0AAAAAAAAAAAAAAA",
"AAAAAAAAAAAAAZAc * 9AAAAAAAq  fAAj ##BAAAAAAk - gAAAAAAAAAAAAAAA",
"AAAAAAAAAAAAAAAB%  &VAAAAAC:. vAAm * cAAAAAAt * nAAAAAAAAAAAAAAA",
"AAAAAAAAAAAAAAAA9 * cAAAZAb o=VAAC,  sAZAAAZ1  >VAAAAAAAAAAAAAAA",
"AAAAAAAAAAAAAAZAf = sAAAAAg  9AAAAr  8AAAAAM % wAAAAAAAAAAAAAAAA",
"AAAAAAAAAAAAAAZAb & 7AAAAAq  dAZAAj #$BAAZAl = hAAAAAAAAAAAAAAAA",
"AAAAAAAAAAAAAAAAC>  #BAAAC>. vAAAAm * cAZAAy * nAAAAAAAAAAAAAAAA",
"AAAAAAAAAAAAAAAAAr = cAZAb O%BAAAAC<  sAZAA2  ,ZAAAAAAAAAAAAAAAA",
"AAAAAAAAAAAAAAAAAh = aAZAg  8AAAAAAr  8AAAM % rAAAAAAAAAAAAAAAAA",
"AAAAAAAAAAAAAAAAAn & 7AAAw  dAAAAAAk #$BAAk - kAZAAAAAAAAAAAAAAA",
"AAAAAAAAAAAAAAAAAZ< X@BAC:. cAZAAAAm & vAAy % MAAAAAAAAAAAAAAAAA",
"AAAAAAAAAAAAAAAAAAy = xAb O%BAZAAAAZ<  dAZ2  2ZAAAAAAAAAAAAAAAAA",
"AAAAAAAAAAAAAAAAZAz = aAg  8AAAAAAAAt  8AM % uAZAAAAAAAAAAAAAAAA",
"AAAAAAAAAAAAAAAAAAM # 6Aw  sAAAAAAAAl @OZl - lAAAAAAAAAAAAAAAAAA",
"AAAAAAAAAAAAAAAAAAA4 .&m<  cAAAAAAZAM & na % MAAAAAAAAAAAAAAAAAA",
"AAAAAAAAAAAAAAAAAAAi % u& #BAAAAAAAAZ1  a7  5AAAAAAAAAAAAAAAAAAA",
"AAAAAAAAAAAAAAAAAZAx $  @ 7AAAAAAAAAAy +-$@ iAAAAAAAAAAAAAAAAAAA",
"AAAAAAAAAAAAAAAAAAANo . $ aAAAAAAAAZAk %  $ xAZAAAAAAAAAAAAAAAAA",
"AAAAAAAAAAAAAAAAAAAA7 @.$ cAZAAAAAAAAM OXX .BAAAAAAAAAAAAAAAAAAA",
"AAAAAAAAAAAAAAAAAAAAd =%$%BAAAAAAAAAAZ3 *& 6AAAAAAAAAAAAAAAAAAAA",
"AAAAAAAAAAAAAAAAAAZAv    3AAAAAAAAAAAAt    aAAAAAAAAAAAAAAAAAAAA",
"AAAAAAAAAAAAAAAAAAAAVaaaizAAAAAAAAAAAAbuaaimAAAAAAAAAAAAAAAAAAAA",
"AAAAAAAAAAAAAAAAAAAAAAAAAAAAAAAAAAAAAAAAAAAAAAAAAAAAAAAAAAAAAAAA",
"AAAAAAAAAAAAAAAAAAAAAAAZZAAAAAAAAAAAAAAZAAZAAAAAAAAAAAAAAAAAAAAA",
"AAAAAAAAAAAAAAAAAAAAAAAAAAAAAAAAAAAAAAAAAAAAAAAAAAAAAAAAAAAAAAAA",
"AAAAAAAAAAAAAAAAAAAAAAAAAAAAAAAAAAAAAAAAAAAAAAAAAAAAAAAAAAAAAAAA",
"AAAAAAAAAAAAAAAAAAAAAAAAAAAAAAAAAAAAAAAAAAAAAAAAAAAAAAAAAAAAAAAA",
"AAAAAAAAAAAAAAAAAAAAAAAAAAAAAAAAAAAAAAAAAAAAAAAAAAAAAAAAAAAAAAAA",
"AAAAAAAAAAAAAAAAAAAAAAAAAAAAAAAAAAAAAAAAAAAAAAAAAAAAAAAAAAAAAAAA",
"AAAAAAAAAAAAAAAAAAAAAAAAAAAAAAAAAAAAAAAAAAAAAAAAAAAAAAAAAAAAAAAA",
"AAAAAAAAAAAAAAAAAAAAAAAAAAAAAAAAAAAAAAAAAAAAAAAAAAAAAAAAAAAAAAAA",
"AAAAAAAAAAAAAAAAAAAAAAAAAAAAAAAAAAAAAAAAAAAAAAAAAAAAAAAAAAAAAAAA",
"AAAAAAAAAAAAAAAAAAAAAAAAAAAAAAAAAAAAAAAAAAAAAAAAAAAAAAAAAAAAAAAA",
"AAAAAAAAAAAAAAAAAAAAAAAAAAAAAAAAAAAAAAAAAAAAAAAAAAAAAAAAAAAAAAAA",
"AAAAAAAAAAAAAAAAAAAAAAAAAAAAAAAAAAAAAAAAAAAAAAAAAAAAAAAAAAAAAAAA",
"AAAAAAAAAAAAAAAAAAAAAAAAAAAAAAAAAAAAAAAAAAAAAAAAAAAAAAAAAAAAAAAA",
"AAAAAAAAAAAAAAAAAAAAAAAAAAAAAAAAAAAAAAAAAAAAAAAAAAAAAAAAAAAAAAAA"
};
